<?xml version="1.0" encoding="utf-8"?>
<!-- Generator: Adobe Illustrator 21.0.0, SVG Export Plug-In . SVG Version: 6.00 Build 0)  -->
<svg version="1.1" id="Layer_1" xmlns="http://www.w3.org/2000/svg" xmlns:xlink="http://www.w3.org/1999/xlink" x="0px" y="0px"
	 viewBox="0 0 92 92" style="enable-background:new 0 0 92 92;" xml:space="preserve">
<style type="text/css">
	.st0{fill:#4892F1;}
	.st1{fill:#274293;}
	.st2{fill:#FFFFFF;}
</style>
<path class="st0" d="M92,56c0-14.3-15.3-26-34-26S24,41.7,24,56s15.3,26,34,26c2.2,0,4.4-0.2,6.5-0.5l16.6,8.3
	c0.3,0.1,0.6,0.2,0.9,0.2c0.4,0,0.7-0.1,1.1-0.3c0.6-0.4,0.9-1,0.9-1.7V72.7C89,68.2,92,62.4,92,56z"/>
<path class="st1" d="M42,2C18.8,2,0,17.3,0,36c0,7.2,2.8,14.1,8,19.9V76c0,0.7,0.4,1.3,0.9,1.7C9.3,77.9,9.6,78,10,78
	c0.3,0,0.6-0.1,0.9-0.2l18.7-9.3c4.1,1,8.3,1.5,12.4,1.5c23.2,0,42-15.3,42-34S65.2,2,42,2z"/>
<path class="st2" d="M23,27c0-1.1,0.9-2,2-2h35c1.1,0,2,0.9,2,2s-0.9,2-2,2H25C23.9,29,23,28.1,23,27z M23,37c0-1.1,0.9-2,2-2h18
	c1.1,0,2,0.9,2,2s-0.9,2-2,2H25C23.9,39,23,38.1,23,37z M25,45c-1.1,0-2,0.9-2,2s0.9,2,2,2h28c1.1,0,2-0.9,2-2s-0.9-2-2-2H25z"/>
</svg>
